<?xml version="1.0" encoding="UTF-8" standalone="no"?>
<!-- Created with Inkscape (http://www.inkscape.org/) -->

<svg
   xmlns:dc="http://purl.org/dc/elements/1.1/"
   xmlns:cc="http://creativecommons.org/ns#"
   xmlns:rdf="http://www.w3.org/1999/02/22-rdf-syntax-ns#"
   xmlns:svg="http://www.w3.org/2000/svg"
   xmlns="http://www.w3.org/2000/svg"
   xmlns:sodipodi="http://sodipodi.sourceforge.net/DTD/sodipodi-0.dtd"
   xmlns:inkscape="http://www.inkscape.org/namespaces/inkscape"
   width="200mm"
   height="200mm"
   viewBox="0 0 200 200"
   version="1.1"
   id="svg8"
   inkscape:version="0.92.4 (5da689c313, 2019-01-14)"
   sodipodi:docname="armBig.svg">
  <defs
     id="defs2" />
  <sodipodi:namedview
     id="base"
     pagecolor="#101010"
     bordercolor="#666666"
     borderopacity="1.0"
     inkscape:pageopacity="0"
     inkscape:pageshadow="2"
     inkscape:zoom="0.49497475"
     inkscape:cx="854.7416"
     inkscape:cy="270.11971"
     inkscape:document-units="mm"
     inkscape:current-layer="layer2"
     showgrid="false"
     inkscape:window-width="2560"
     inkscape:window-height="1017"
     inkscape:window-x="-8"
     inkscape:window-y="-8"
     inkscape:window-maximized="1" />
  <metadata
     id="metadata5">
    <rdf:RDF>
      <cc:Work
         rdf:about="">
        <dc:format>image/svg+xml</dc:format>
        <dc:type
           rdf:resource="http://purl.org/dc/dcmitype/StillImage" />
        <dc:title></dc:title>
      </cc:Work>
    </rdf:RDF>
  </metadata>
  <g
     inkscape:label="Layer 1"
     inkscape:groupmode="layer"
     id="layer1"
     transform="translate(0,-97)" />
  <g
     inkscape:groupmode="layer"
     id="layer2"
     inkscape:label="Layer 2">
    <g
       id="g828"
       style="fill:#fffffc;fill-opacity:1"
       transform="translate(-4.1763239,7.0543288)">
      <path
         sodipodi:nodetypes="csccsscc"
         inkscape:connector-curvature="0"
         id="path843"
         d="m 53.453905,64.227079 c 0,0 -34.745038,40.624971 -37.952272,61.204721 -3.207235,20.57975 -1.870887,25.65788 1.069078,27.26149 2.939964,1.60362 54.21407,15.0352 57.421304,13.16432 3.207234,-1.87089 0.308914,-47.90936 6.990651,-74.63631 C 87.664403,64.494349 82.077491,79.826851 96.217029,36.698319 97.490706,32.813339 76.706353,30.01658 76.706353,30.01658 Z"
         style="fill:#fffffc;fill-opacity:1;stroke:none;stroke-width:0.26458332px;stroke-linecap:butt;stroke-linejoin:miter;stroke-opacity:1" />
      <ellipse
         transform="matrix(0.99998912,0.00466434,-0.02575105,0.99966839,0,0)"
         ry="24.973207"
         rx="41.956951"
         cy="112.75695"
         cx="118.2317"
         id="path845"
         style="opacity:1;fill:#fffffc;fill-opacity:1;stroke:none;stroke-width:6.68851757;stroke-linecap:butt;stroke-linejoin:round;stroke-miterlimit:4;stroke-dasharray:none;stroke-dashoffset:0;stroke-opacity:1;paint-order:stroke fill markers" />
      <ellipse
         cx="119.73676"
         cy="134.25168"
         rx="47.573975"
         ry="35.546844"
         id="path847"
         style="opacity:1;fill:#fffffc;fill-opacity:1;stroke:none;stroke-width:8.65128803;stroke-linecap:butt;stroke-linejoin:round;stroke-miterlimit:4;stroke-dasharray:none;stroke-dashoffset:0;stroke-opacity:1;paint-order:stroke fill markers" />
      <ellipse
         ry="29.666918"
         rx="66.282845"
         cy="139.59709"
         cx="81.249939"
         id="path849"
         style="opacity:1;fill:#fffffc;fill-opacity:1;stroke:none;stroke-width:8.73498821;stroke-linecap:butt;stroke-linejoin:round;stroke-miterlimit:4;stroke-dasharray:none;stroke-dashoffset:0;stroke-opacity:1;paint-order:stroke fill markers" />
      <path
         sodipodi:nodetypes="cscssc"
         inkscape:connector-curvature="0"
         id="path853"
         d="m 67.546861,43.559751 c 0,0 10.03248,-17.62047 16.844415,-24.436658 6.811935,-6.81619 28.644934,-0.0033 28.644934,-0.0033 0,0 16.88134,11.002062 17.14642,20.594085 0.26506,9.592018 -7.48973,18.400308 -12.83546,20.603443 -5.34574,2.203134 -49.800309,-16.757537 -49.800309,-16.757537 z"
         style="fill:#fffffc;fill-opacity:1;stroke:none;stroke-width:0.26458332px;stroke-linecap:butt;stroke-linejoin:miter;stroke-opacity:1" />
      <path
         sodipodi:nodetypes="cssscc"
         inkscape:connector-curvature="0"
         id="path855"
         d="m 136.40052,148.32526 c 0,0 -0.0931,-47.21499 -1.16214,-54.698533 -1.06908,-7.483546 17.96404,-12.35925 25.44759,-9.686553 7.48354,2.672694 29.96661,16.144576 33.70838,35.922516 3.74178,19.77795 -30.87452,43.65895 -39.42714,40.98625 -8.55262,-2.67269 -18.56669,-12.52368 -18.56669,-12.52368 z"
         style="fill:#fffffc;fill-opacity:1;stroke:none;stroke-width:0.26458332px;stroke-linecap:butt;stroke-linejoin:miter;stroke-opacity:1" />
    </g>
  </g>
</svg>
