<?xml version="1.0" encoding="UTF-8" standalone="no"?>
<!-- Created with Inkscape (http://www.inkscape.org/) -->

<svg
   xmlns:dc="http://purl.org/dc/elements/1.1/"
   xmlns:cc="http://creativecommons.org/ns#"
   xmlns:rdf="http://www.w3.org/1999/02/22-rdf-syntax-ns#"
   xmlns:svg="http://www.w3.org/2000/svg"
   xmlns="http://www.w3.org/2000/svg"
   xmlns:sodipodi="http://sodipodi.sourceforge.net/DTD/sodipodi-0.dtd"
   xmlns:inkscape="http://www.inkscape.org/namespaces/inkscape"
   width="200mm"
   height="200mm"
   viewBox="0 0 200 200"
   version="1.1"
   id="svg8"
   inkscape:version="0.92.4 (5da689c313, 2019-01-14)"
   sodipodi:docname="armXS.svg">
  <defs
     id="defs2" />
  <sodipodi:namedview
     id="base"
     pagecolor="#101010"
     bordercolor="#666666"
     borderopacity="1.0"
     inkscape:pageopacity="0"
     inkscape:pageshadow="2"
     inkscape:zoom="0.7"
     inkscape:cx="635.46997"
     inkscape:cy="368.92697"
     inkscape:document-units="mm"
     inkscape:current-layer="layer2"
     showgrid="false"
     inkscape:window-width="2560"
     inkscape:window-height="1017"
     inkscape:window-x="-8"
     inkscape:window-y="-8"
     inkscape:window-maximized="1" />
  <metadata
     id="metadata5">
    <rdf:RDF>
      <cc:Work
         rdf:about="">
        <dc:format>image/svg+xml</dc:format>
        <dc:type
           rdf:resource="http://purl.org/dc/dcmitype/StillImage" />
        <dc:title></dc:title>
      </cc:Work>
    </rdf:RDF>
  </metadata>
  <g
     inkscape:label="Layer 1"
     inkscape:groupmode="layer"
     id="layer1"
     transform="translate(0,-97)" />
  <g
     inkscape:groupmode="layer"
     id="layer2"
     inkscape:label="Layer 2">
    <g
       id="g823"
       transform="translate(-0.2634119,11.063353)"
       style="fill:#ffffff;fill-opacity:1">
      <path
         sodipodi:nodetypes="csccsscc"
         inkscape:connector-curvature="0"
         id="path843"
         d="m 53.694599,65.810025 c 0,0 -33.305154,39.198335 -37.391157,59.621775 -3.207235,16.03102 -0.26727,24.85607 2.672695,26.45968 2.939964,1.60362 43.432926,7.2487 46.64016,5.37782 3.207234,-1.87089 -3.509132,-41.31714 6.273641,-67.071222 17.033757,-44.842985 6.785767,-13.01706 20.925305,-56.145592 1.273677,-3.88498 -16.10889,-4.035906 -16.10889,-4.035906 z"
         style="fill:#ffffff;fill-opacity:1;stroke:none;stroke-width:0.26458332px;stroke-linecap:butt;stroke-linejoin:miter;stroke-opacity:1" />
      <ellipse
         transform="matrix(0.99590719,-0.09038181,0.08893759,0.9960372,0,0)"
         cx="99.266281"
         cy="138.50807"
         rx="46.325928"
         ry="31.045559"
         id="path847"
         style="opacity:1;fill:#ffffff;fill-opacity:1;stroke:none;stroke-width:8.78897762;stroke-linecap:butt;stroke-linejoin:round;stroke-miterlimit:4;stroke-dasharray:none;stroke-dashoffset:0;stroke-opacity:1;paint-order:stroke fill markers" />
      <ellipse
         ry="25.925142"
         rx="64.545593"
         cy="135.85533"
         cx="80.849037"
         id="path849"
         style="opacity:1;fill:#ffffff;fill-opacity:1;stroke:none;stroke-width:8.19023037;stroke-linecap:butt;stroke-linejoin:round;stroke-miterlimit:4;stroke-dasharray:none;stroke-dashoffset:0;stroke-opacity:1;paint-order:stroke fill markers" />
      <path
         sodipodi:nodetypes="cscsscc"
         inkscape:connector-curvature="0"
         id="path853"
         d="m 67.948461,43.831454 c 0,0 9.63088,-17.892173 16.442815,-24.708361 6.811935,-6.81619 28.644934,-0.0033 28.644934,-0.0033 0,0 16.88134,11.002062 17.14642,20.594085 0.26506,9.592018 -7.48973,18.400308 -12.83546,20.603443 -5.34574,2.203134 -49.398709,-16.485867 -49.398709,-16.485867 z"
         style="fill:#ffffff;fill-opacity:1;stroke:none;stroke-width:0.26458332px;stroke-linecap:butt;stroke-linejoin:miter;stroke-opacity:1" />
      <path
         sodipodi:nodetypes="cssscc"
         inkscape:connector-curvature="0"
         id="path855"
         d="m 123.41236,152.81573 c 0,0 12.27425,-40.10777 11.31975,-47.44069 -0.95449,-7.332918 18.98805,-15.531204 25.6695,-12.912301 6.68143,2.618901 21.62906,7.903761 24.96977,27.283631 3.34073,19.37988 -28.36523,37.70443 -36.00116,35.08552 -7.63594,-2.6189 -25.95786,-2.01616 -25.95786,-2.01616 z"
         style="fill:#ffffff;fill-opacity:1;stroke:none;stroke-width:0.2474736px;stroke-linecap:butt;stroke-linejoin:miter;stroke-opacity:1" />
    </g>
  </g>
</svg>
