<?xml version="1.0" encoding="UTF-8" standalone="no"?>
<!-- Created with Inkscape (http://www.inkscape.org/) -->

<svg
   xmlns:osb="http://www.openswatchbook.org/uri/2009/osb"
   xmlns:dc="http://purl.org/dc/elements/1.1/"
   xmlns:cc="http://creativecommons.org/ns#"
   xmlns:rdf="http://www.w3.org/1999/02/22-rdf-syntax-ns#"
   xmlns:svg="http://www.w3.org/2000/svg"
   xmlns="http://www.w3.org/2000/svg"
   xmlns:sodipodi="http://sodipodi.sourceforge.net/DTD/sodipodi-0.dtd"
   xmlns:inkscape="http://www.inkscape.org/namespaces/inkscape"
   width="210mm"
   height="210mm"
   viewBox="0 0 210 210"
   version="1.1"
   id="svg8"
   sodipodi:docname="ruler.svg"
   inkscape:version="0.92.4 (5da689c313, 2019-01-14)">
  <defs
     id="defs2">
    <linearGradient
       id="linearGradient2386"
       osb:paint="solid">
      <stop
         style="stop-color:#000000;stop-opacity:1;"
         offset="0"
         id="stop2384" />
    </linearGradient>
    <linearGradient
       id="linearGradient2378"
       osb:paint="solid">
      <stop
         style="stop-color:#000000;stop-opacity:1;"
         offset="0"
         id="stop2376" />
    </linearGradient>
    <linearGradient
       id="linearGradient938"
       osb:paint="solid">
      <stop
         style="stop-color:#000000;stop-opacity:1;"
         offset="0"
         id="stop936" />
    </linearGradient>
    <filter
       inkscape:collect="always"
       style="color-interpolation-filters:sRGB"
       id="filter2417"
       x="-0.025347189"
       width="1.0506944"
       y="-0.022788789"
       height="1.0455776">
      <feGaussianBlur
         inkscape:collect="always"
         stdDeviation="1.8806423"
         id="feGaussianBlur2419" />
    </filter>
  </defs>
  <sodipodi:namedview
     id="base"
     pagecolor="#ffffff"
     bordercolor="#666666"
     borderopacity="1.0"
     inkscape:pageopacity="0.0"
     inkscape:pageshadow="2"
     inkscape:zoom="0.35"
     inkscape:cx="310.48097"
     inkscape:cy="444.99819"
     inkscape:document-units="mm"
     inkscape:current-layer="layer1"
     showgrid="false"
     inkscape:window-width="2560"
     inkscape:window-height="1017"
     inkscape:window-x="-8"
     inkscape:window-y="-8"
     inkscape:window-maximized="1" />
  <metadata
     id="metadata5">
    <rdf:RDF>
      <cc:Work
         rdf:about="">
        <dc:format>image/svg+xml</dc:format>
        <dc:type
           rdf:resource="http://purl.org/dc/dcmitype/StillImage" />
        <dc:title></dc:title>
      </cc:Work>
    </rdf:RDF>
  </metadata>
  <g
     inkscape:label="Layer 1"
     inkscape:groupmode="layer"
     id="layer1"
     transform="translate(0,-87)">
    <g
       id="g2423"
       transform="translate(-0.64524585,-12.851197)">
      <path
         inkscape:connector-curvature="0"
         id="rect815"
         d="m 36.069647,105.82132 c -10.780079,0 -19.45876,8.67868 -19.45876,19.45876 V 284.4223 c 0,10.78008 8.678681,19.45876 19.45876,19.45876 H 175.22085 c 5.973,0 11.29309,-2.67134 14.85697,-6.88123 h -23.85797 c -0.23558,0 -0.46545,-0.0236 -0.6873,-0.0687 -0.22185,-0.0452 -0.43561,-0.11156 -0.63924,-0.19741 -0.40726,-0.17168 -0.77363,-0.42068 -1.08107,-0.72812 -0.30743,-0.30743 -0.55592,-0.67381 -0.7276,-1.08107 -0.0858,-0.20363 -0.15276,-0.41739 -0.19792,-0.63924 -0.0452,-0.22184 -0.0687,-0.45172 -0.0687,-0.68729 0,-0.23557 0.0236,-0.46545 0.0687,-0.6873 0.0452,-0.22185 0.11207,-0.43561 0.19792,-0.63924 0.17168,-0.40725 0.42017,-0.77365 0.7276,-1.08107 0.30744,-0.30743 0.67381,-0.55594 1.08107,-0.7276 0.20363,-0.0858 0.41739,-0.15224 0.63924,-0.19741 0.22185,-0.0452 0.45172,-0.0687 0.6873,-0.0687 h 27.59418 c 0.56214,-1.82323 0.86558,-3.76183 0.86558,-5.77433 v -8.08478 h -28.45976 c -0.23558,0 -0.46545,-0.0236 -0.6873,-0.0687 -0.22185,-0.0452 -0.43561,-0.11156 -0.63924,-0.1974 -0.40726,-0.17168 -0.77363,-0.42017 -1.08107,-0.7276 -0.30743,-0.30744 -0.55592,-0.67382 -0.7276,-1.08108 -0.0858,-0.20362 -0.15276,-0.4179 -0.19792,-0.63975 -0.0452,-0.22185 -0.0687,-0.45121 -0.0687,-0.68678 0,-0.23557 0.0236,-0.46545 0.0687,-0.6873 0.0452,-0.22184 0.11207,-0.43612 0.19792,-0.63975 0.17168,-0.40726 0.42017,-0.77312 0.7276,-1.08055 0.30744,-0.30744 0.67381,-0.55644 1.08107,-0.72813 0.20363,-0.0858 0.41739,-0.15223 0.63924,-0.1974 0.22185,-0.0452 0.45172,-0.0687 0.6873,-0.0687 h 28.45976 v -15.24558 h -51.79994 c -0.23557,0 -0.46545,-0.0236 -0.6873,-0.0687 -0.22184,-0.0452 -0.43561,-0.11208 -0.63923,-0.19792 -0.40726,-0.17168 -0.77364,-0.42017 -1.08108,-0.7276 -0.30743,-0.30744 -0.55592,-0.67382 -0.7276,-1.08108 -0.0858,-0.20362 -0.15225,-0.41739 -0.1974,-0.63923 -0.0452,-0.22185 -0.0693,-0.45172 -0.0693,-0.6873 0,-0.23557 0.0241,-0.46545 0.0693,-0.6873 0.0452,-0.22184 0.11156,-0.4356 0.1974,-0.63923 0.17168,-0.40726 0.42017,-0.77364 0.7276,-1.08107 0.30744,-0.30744 0.67382,-0.55593 1.08108,-0.72761 0.20362,-0.0858 0.41739,-0.15275 0.63923,-0.19792 0.22185,-0.0452 0.45173,-0.0687 0.6873,-0.0687 h 51.79994 v -15.51275 h -28.45976 c -0.23558,0 -0.46545,-0.0236 -0.6873,-0.0687 -0.22185,-0.0452 -0.43561,-0.11207 -0.63924,-0.19792 -0.40726,-0.17168 -0.77363,-0.42017 -1.08107,-0.7276 -0.30743,-0.30744 -0.55592,-0.67381 -0.7276,-1.08107 -0.0858,-0.20363 -0.15276,-0.41739 -0.19792,-0.63924 -0.0452,-0.22185 -0.0687,-0.45172 -0.0687,-0.6873 0,-0.23557 0.0236,-0.46545 0.0687,-0.68729 0.0452,-0.22185 0.11207,-0.43562 0.19792,-0.63924 0.17168,-0.40726 0.42017,-0.77364 0.7276,-1.08107 0.30744,-0.30744 0.67381,-0.55592 1.08107,-0.7276 0.20363,-0.0858 0.41739,-0.15224 0.63924,-0.19741 0.22185,-0.0452 0.45172,-0.0693 0.6873,-0.0693 h 28.45976 v -17.86779 h -28.45976 c -0.23558,0 -0.46545,-0.0236 -0.6873,-0.0687 -0.22185,-0.0452 -0.43561,-0.11156 -0.63924,-0.1974 -0.40726,-0.17169 -0.77363,-0.42069 -1.08107,-0.72812 -0.30743,-0.30744 -0.55592,-0.6733 -0.7276,-1.08056 -0.0858,-0.20363 -0.15276,-0.4179 -0.19792,-0.63975 -0.0452,-0.22185 -0.0687,-0.45172 -0.0687,-0.6873 0,-0.23557 0.0236,-0.46545 0.0687,-0.68729 0.0452,-0.22185 0.11207,-0.43561 0.19792,-0.63924 0.17168,-0.40726 0.42017,-0.77364 0.7276,-1.08107 0.30744,-0.30744 0.67381,-0.55592 1.08107,-0.72761 0.20363,-0.0858 0.41739,-0.15223 0.63924,-0.1974 0.22185,-0.0452 0.45172,-0.0687 0.6873,-0.0687 h 28.45976 V 185.4222 h -51.79994 c -0.23557,0 -0.46545,-0.0236 -0.6873,-0.0687 -0.22184,-0.0452 -0.43561,-0.11156 -0.63923,-0.1974 -0.40726,-0.17168 -0.77364,-0.42068 -1.08108,-0.72812 -0.30743,-0.30744 -0.55592,-0.6733 -0.7276,-1.08056 -0.0858,-0.20362 -0.15224,-0.4179 -0.1974,-0.63975 -0.0452,-0.22185 -0.0693,-0.45172 -0.0693,-0.6873 0,-0.23557 0.0241,-0.46493 0.0693,-0.68678 0.0452,-0.22184 0.11156,-0.43613 0.1974,-0.63975 0.17168,-0.40726 0.42017,-0.77363 0.7276,-1.08107 0.30744,-0.30744 0.67382,-0.55592 1.08108,-0.7276 0.20362,-0.0858 0.41739,-0.15224 0.63923,-0.19741 0.22185,-0.0452 0.45173,-0.0687 0.6873,-0.0687 h 51.79994 v -19.20244 h -27.65826 c -0.23558,0 -0.46494,-0.0236 -0.68678,-0.0687 -0.22185,-0.0452 -0.43613,-0.11157 -0.63976,-0.19741 -0.40725,-0.17168 -0.77363,-0.42068 -1.08107,-0.72812 -0.30743,-0.30743 -0.55592,-0.6733 -0.7276,-1.08055 -0.0858,-0.20363 -0.15224,-0.41791 -0.1974,-0.63976 -0.0452,-0.22184 -0.0687,-0.45172 -0.0687,-0.68729 0,-0.23558 0.0236,-0.46545 0.0687,-0.6873 0.0452,-0.22185 0.11156,-0.43561 0.1974,-0.63924 0.17168,-0.40726 0.42017,-0.77363 0.7276,-1.08107 0.30744,-0.30743 0.67382,-0.55592 1.08107,-0.7276 0.20363,-0.0858 0.41791,-0.15224 0.63976,-0.19741 0.22184,-0.0452 0.4512,-0.0687 0.68678,-0.0687 h 27.65826 V 133.9438 h -28.45976 c -0.23558,0 -0.46545,-0.0236 -0.6873,-0.0687 -0.22185,-0.0452 -0.43561,-0.11207 -0.63924,-0.19792 -0.40726,-0.17168 -0.77363,-0.42016 -1.08107,-0.7276 -0.30743,-0.30744 -0.55592,-0.67381 -0.7276,-1.08107 -0.0858,-0.20363 -0.15276,-0.41739 -0.19792,-0.63924 -0.0452,-0.22185 -0.0687,-0.45172 -0.0687,-0.6873 0,-0.23557 0.0236,-0.46545 0.0687,-0.68729 0.0452,-0.22185 0.11207,-0.43561 0.19792,-0.63924 0.17168,-0.40726 0.42017,-0.77363 0.7276,-1.08107 0.30744,-0.30744 0.67381,-0.55592 1.08107,-0.72761 0.20363,-0.0858 0.41739,-0.15275 0.63924,-0.19792 0.22185,-0.0452 0.45172,-0.0687 0.6873,-0.0687 h 28.45976 v -1.85983 c 0,-10.78008 -8.67868,-19.45876 -19.45876,-19.45876 z"
         style="opacity:1;fill:#000000;fill-opacity:0.55801104;stroke:none;stroke-width:10.76417923;stroke-linecap:butt;stroke-linejoin:round;stroke-miterlimit:4;stroke-dasharray:none;stroke-dashoffset:0;stroke-opacity:1;paint-order:stroke fill markers;filter:url(#filter2417)" />
      <path
         inkscape:connector-curvature="0"
         id="rect815-1"
         d="m 33.912502,103.55346 c -10.780079,0 -19.45876,8.67868 -19.45876,19.45876 v 159.14222 c 0,10.78008 8.678681,19.45876 19.45876,19.45876 H 173.0637 c 5.973,0 11.29309,-2.67134 14.85697,-6.88123 H 164.0627 c -0.23558,0 -0.46545,-0.0236 -0.6873,-0.0687 -0.22185,-0.0452 -0.43561,-0.11156 -0.63924,-0.19741 -0.40726,-0.17168 -0.77363,-0.42068 -1.08107,-0.72812 -0.30743,-0.30743 -0.55592,-0.67381 -0.7276,-1.08107 -0.0858,-0.20363 -0.15276,-0.41739 -0.19792,-0.63924 -0.0452,-0.22184 -0.0687,-0.45172 -0.0687,-0.68729 0,-0.23557 0.0236,-0.46545 0.0687,-0.6873 0.0452,-0.22185 0.11207,-0.43561 0.19792,-0.63924 0.17168,-0.40725 0.42017,-0.77365 0.7276,-1.08107 0.30744,-0.30743 0.67381,-0.55594 1.08107,-0.7276 0.20363,-0.0858 0.41739,-0.15224 0.63924,-0.19741 0.22185,-0.0452 0.45172,-0.0687 0.6873,-0.0687 h 27.59418 c 0.56214,-1.82323 0.86558,-3.76183 0.86558,-5.77433 v -8.08478 H 164.0627 c -0.23558,0 -0.46545,-0.0236 -0.6873,-0.0687 -0.22185,-0.0452 -0.43561,-0.11156 -0.63924,-0.1974 -0.40726,-0.17168 -0.77363,-0.42017 -1.08107,-0.7276 -0.30743,-0.30744 -0.55592,-0.67382 -0.7276,-1.08108 -0.0858,-0.20362 -0.15276,-0.4179 -0.19792,-0.63975 -0.0452,-0.22185 -0.0687,-0.45121 -0.0687,-0.68678 0,-0.23557 0.0236,-0.46545 0.0687,-0.6873 0.0452,-0.22184 0.11207,-0.43612 0.19792,-0.63975 0.17168,-0.40726 0.42017,-0.77312 0.7276,-1.08055 0.30744,-0.30744 0.67381,-0.55644 1.08107,-0.72813 0.20363,-0.0858 0.41739,-0.15223 0.63924,-0.1974 0.22185,-0.0452 0.45172,-0.0687 0.6873,-0.0687 h 28.45976 v -15.24558 h -51.79994 c -0.23557,0 -0.46545,-0.0236 -0.6873,-0.0687 -0.22184,-0.0452 -0.43561,-0.11208 -0.63923,-0.19792 -0.40726,-0.17168 -0.77364,-0.42017 -1.08108,-0.7276 -0.30743,-0.30744 -0.55592,-0.67382 -0.7276,-1.08108 -0.0858,-0.20362 -0.15225,-0.41739 -0.1974,-0.63923 -0.0452,-0.22185 -0.0693,-0.45172 -0.0693,-0.6873 0,-0.23557 0.0241,-0.46545 0.0693,-0.6873 0.0452,-0.22184 0.11156,-0.4356 0.1974,-0.63923 0.17168,-0.40726 0.42017,-0.77364 0.7276,-1.08107 0.30744,-0.30744 0.67382,-0.55593 1.08108,-0.72761 0.20362,-0.0858 0.41739,-0.15275 0.63923,-0.19792 0.22185,-0.0452 0.45173,-0.0687 0.6873,-0.0687 h 51.79994 V 229.70458 H 164.0627 c -0.23558,0 -0.46545,-0.0236 -0.6873,-0.0687 -0.22185,-0.0452 -0.43561,-0.11207 -0.63924,-0.19792 -0.40726,-0.17168 -0.77363,-0.42017 -1.08107,-0.7276 -0.30743,-0.30744 -0.55592,-0.67381 -0.7276,-1.08107 -0.0858,-0.20363 -0.15276,-0.41739 -0.19792,-0.63924 -0.0452,-0.22185 -0.0687,-0.45172 -0.0687,-0.6873 0,-0.23557 0.0236,-0.46545 0.0687,-0.68729 0.0452,-0.22185 0.11207,-0.43562 0.19792,-0.63924 0.17168,-0.40726 0.42017,-0.77364 0.7276,-1.08107 0.30744,-0.30744 0.67381,-0.55592 1.08107,-0.7276 0.20363,-0.0858 0.41739,-0.15224 0.63924,-0.19741 0.22185,-0.0452 0.45172,-0.0693 0.6873,-0.0693 h 28.45976 V 205.03305 H 164.0627 c -0.23558,0 -0.46545,-0.0236 -0.6873,-0.0687 -0.22185,-0.0452 -0.43561,-0.11156 -0.63924,-0.1974 -0.40726,-0.17169 -0.77363,-0.42069 -1.08107,-0.72812 -0.30743,-0.30744 -0.55592,-0.6733 -0.7276,-1.08056 -0.0858,-0.20363 -0.15276,-0.4179 -0.19792,-0.63975 -0.0452,-0.22185 -0.0687,-0.45172 -0.0687,-0.6873 0,-0.23557 0.0236,-0.46545 0.0687,-0.68729 0.0452,-0.22185 0.11207,-0.43561 0.19792,-0.63924 0.17168,-0.40726 0.42017,-0.77364 0.7276,-1.08107 0.30744,-0.30744 0.67381,-0.55592 1.08107,-0.72761 0.20363,-0.0858 0.41739,-0.15223 0.63924,-0.1974 0.22185,-0.0452 0.45172,-0.0687 0.6873,-0.0687 h 28.45976 v -15.07557 h -51.79994 c -0.23557,0 -0.46545,-0.0236 -0.6873,-0.0687 -0.22184,-0.0452 -0.43561,-0.11156 -0.63923,-0.1974 -0.40726,-0.17168 -0.77364,-0.42068 -1.08108,-0.72812 -0.30743,-0.30744 -0.55592,-0.6733 -0.7276,-1.08056 -0.0858,-0.20362 -0.15224,-0.4179 -0.1974,-0.63975 -0.0452,-0.22185 -0.0693,-0.45172 -0.0693,-0.6873 0,-0.23557 0.0241,-0.46493 0.0693,-0.68678 0.0452,-0.22184 0.11156,-0.43613 0.1974,-0.63975 0.17168,-0.40726 0.42017,-0.77363 0.7276,-1.08107 0.30744,-0.30744 0.67382,-0.55592 1.08108,-0.7276 0.20362,-0.0858 0.41739,-0.15224 0.63923,-0.19741 0.22185,-0.0452 0.45173,-0.0687 0.6873,-0.0687 h 51.79994 V 157.14876 H 164.8642 c -0.23558,0 -0.46494,-0.0236 -0.68678,-0.0687 -0.22185,-0.0452 -0.43613,-0.11157 -0.63976,-0.19741 -0.40725,-0.17168 -0.77363,-0.42068 -1.08107,-0.72812 -0.30743,-0.30743 -0.55592,-0.6733 -0.7276,-1.08055 -0.0858,-0.20363 -0.15224,-0.41791 -0.1974,-0.63976 -0.0452,-0.22184 -0.0687,-0.45172 -0.0687,-0.68729 0,-0.23558 0.0236,-0.46545 0.0687,-0.6873 0.0452,-0.22185 0.11156,-0.43561 0.1974,-0.63924 0.17168,-0.40726 0.42017,-0.77363 0.7276,-1.08107 0.30744,-0.30743 0.67382,-0.55592 1.08107,-0.7276 0.20363,-0.0858 0.41791,-0.15224 0.63976,-0.19741 0.22184,-0.0452 0.4512,-0.0687 0.68678,-0.0687 h 27.65826 V 131.67594 H 164.0627 c -0.23558,0 -0.46545,-0.0236 -0.6873,-0.0687 -0.22185,-0.0452 -0.43561,-0.11207 -0.63924,-0.19792 -0.40726,-0.17168 -0.77363,-0.42016 -1.08107,-0.7276 -0.30743,-0.30744 -0.55592,-0.67381 -0.7276,-1.08107 -0.0858,-0.20363 -0.15276,-0.41739 -0.19792,-0.63924 -0.0452,-0.22185 -0.0687,-0.45172 -0.0687,-0.6873 0,-0.23557 0.0236,-0.46545 0.0687,-0.68729 0.0452,-0.22185 0.11207,-0.43561 0.19792,-0.63924 0.17168,-0.40726 0.42017,-0.77363 0.7276,-1.08107 0.30744,-0.30744 0.67381,-0.55592 1.08107,-0.72761 0.20363,-0.0858 0.41739,-0.15275 0.63924,-0.19792 0.22185,-0.0452 0.45172,-0.0687 0.6873,-0.0687 h 28.45976 v -1.85983 c 0,-10.78008 -8.67868,-19.45876 -19.45876,-19.45876 z"
         style="opacity:1;fill:#1b745a;fill-opacity:1;stroke:none;stroke-width:10.76417923;stroke-linecap:butt;stroke-linejoin:round;stroke-miterlimit:4;stroke-dasharray:none;stroke-dashoffset:0;stroke-opacity:1;paint-order:stroke fill markers" />
    </g>
  </g>
</svg>
