<?xml version="1.0" encoding="UTF-8" standalone="no"?>
<!-- Created with Inkscape (http://www.inkscape.org/) -->

<svg
   xmlns:osb="http://www.openswatchbook.org/uri/2009/osb"
   xmlns:dc="http://purl.org/dc/elements/1.1/"
   xmlns:cc="http://creativecommons.org/ns#"
   xmlns:rdf="http://www.w3.org/1999/02/22-rdf-syntax-ns#"
   xmlns:svg="http://www.w3.org/2000/svg"
   xmlns="http://www.w3.org/2000/svg"
   xmlns:sodipodi="http://sodipodi.sourceforge.net/DTD/sodipodi-0.dtd"
   xmlns:inkscape="http://www.inkscape.org/namespaces/inkscape"
   width="210mm"
   height="210mm"
   viewBox="0 0 210 210"
   version="1.1"
   id="svg8"
   sodipodi:docname="ruler.svg"
   inkscape:version="0.92.4 (5da689c313, 2019-01-14)">
  <defs
     id="defs2">
    <linearGradient
       id="linearGradient2386"
       osb:paint="solid">
      <stop
         style="stop-color:#000000;stop-opacity:1;"
         offset="0"
         id="stop2384" />
    </linearGradient>
    <linearGradient
       id="linearGradient2378"
       osb:paint="solid">
      <stop
         style="stop-color:#000000;stop-opacity:1;"
         offset="0"
         id="stop2376" />
    </linearGradient>
    <linearGradient
       id="linearGradient938"
       osb:paint="solid">
      <stop
         style="stop-color:#000000;stop-opacity:1;"
         offset="0"
         id="stop936" />
    </linearGradient>
    <filter
       inkscape:collect="always"
       style="color-interpolation-filters:sRGB"
       id="filter1114"
       x="-0.035999999"
       width="1.072"
       y="-0.036000001"
       height="1.072">
      <feGaussianBlur
         inkscape:collect="always"
         stdDeviation="2.8574999"
         id="feGaussianBlur1116" />
    </filter>
  </defs>
  <sodipodi:namedview
     id="base"
     pagecolor="#ffffff"
     bordercolor="#666666"
     borderopacity="1.0"
     inkscape:pageopacity="0.0"
     inkscape:pageshadow="2"
     inkscape:zoom="0.7"
     inkscape:cx="389.37522"
     inkscape:cy="328.53743"
     inkscape:document-units="mm"
     inkscape:current-layer="layer1"
     showgrid="false"
     inkscape:window-width="2560"
     inkscape:window-height="1017"
     inkscape:window-x="-8"
     inkscape:window-y="-8"
     inkscape:window-maximized="1" />
  <metadata
     id="metadata5">
    <rdf:RDF>
      <cc:Work
         rdf:about="">
        <dc:format>image/svg+xml</dc:format>
        <dc:type
           rdf:resource="http://purl.org/dc/dcmitype/StillImage" />
        <dc:title />
      </cc:Work>
    </rdf:RDF>
  </metadata>
  <g
     inkscape:label="Layer 1"
     inkscape:groupmode="layer"
     id="layer1"
     transform="translate(0,-87)">
    <g
       id="g1120"
       transform="translate(4.1577381,6.4255952)">
      <path
         inkscape:connector-curvature="0"
         id="rect837"
         d="m 44.868578,94.04578 c -19.26468,0 -34.774104,15.50891 -34.774104,34.77358 v 120.95283 c 0,19.26468 15.509424,34.77358 34.774104,34.77358 H 165.82088 c 15.41806,0 28.40644,-9.94554 32.98817,-23.78821 h -33.80207 c -0.45291,0 -0.89433,-0.0455 -1.32085,-0.13229 -0.42652,-0.0868 -0.83789,-0.21478 -1.22938,-0.37982 -0.3915,-0.16504 -0.76321,-0.36743 -1.11104,-0.60203 -0.34784,-0.23461 -0.67185,-0.50183 -0.96739,-0.79737 -0.29553,-0.29553 -0.56276,-0.61903 -0.79737,-0.96686 -0.2346,-0.34784 -0.43647,-0.71955 -0.60151,-1.11105 -0.16504,-0.39149 -0.29298,-0.80286 -0.37982,-1.22938 -0.0868,-0.42652 -0.13281,-0.86845 -0.13281,-1.32137 0,-0.45291 0.046,-0.89484 0.13281,-1.32136 0.0868,-0.42652 0.21478,-0.83737 0.37982,-1.22887 0.16504,-0.39149 0.36691,-0.76372 0.60151,-1.11156 0.23461,-0.34783 0.50184,-0.67133 0.79737,-0.96687 0.29554,-0.29553 0.61955,-0.56276 0.96739,-0.79736 0.34783,-0.23461 0.71954,-0.43699 1.11104,-0.60203 0.39149,-0.16504 0.80286,-0.29299 1.22938,-0.37983 0.42652,-0.0868 0.86794,-0.13229 1.32085,-0.13229 h 35.58749 v -17.37258 h -73.00484 c -0.52695,0 -1.04114,-0.053 -1.53738,-0.15399 -0.49624,-0.10103 -0.97491,-0.25034 -1.4304,-0.44236 -0.45549,-0.19201 -0.88774,-0.42674 -1.29243,-0.69969 -0.40469,-0.27296 -0.78167,-0.58375 -1.12551,-0.9276 -0.34385,-0.34384 -0.65464,-0.72082 -0.92759,-1.12551 -0.27296,-0.40469 -0.5082,-0.83745 -0.70022,-1.29294 -0.19202,-0.45549 -0.3408,-0.93365 -0.44183,-1.42989 -0.10103,-0.49624 -0.154,-1.01043 -0.154,-1.53737 0,-0.52695 0.053,-1.04114 0.154,-1.53738 0.10103,-0.49624 0.24981,-0.9744 0.44183,-1.42988 0.19202,-0.45549 0.42726,-0.88826 0.70022,-1.29295 0.27295,-0.40469 0.58374,-0.78115 0.92759,-1.12499 0.34384,-0.34385 0.72082,-0.65516 1.12551,-0.92811 0.40469,-0.27296 0.83694,-0.50769 1.29243,-0.6997 0.45549,-0.19202 0.93416,-0.34132 1.4304,-0.44235 0.49624,-0.10103 1.01043,-0.154 1.53738,-0.154 h 73.00484 v -17.65525 h -35.58749 c -0.45291,0 -0.89433,-0.046 -1.32085,-0.13281 -0.42652,-0.0868 -0.83789,-0.21478 -1.22938,-0.37982 -0.3915,-0.16504 -0.76321,-0.36691 -1.11104,-0.60152 -0.34784,-0.2346 -0.67185,-0.50183 -0.96739,-0.79736 -0.29553,-0.29554 -0.56276,-0.61955 -0.79737,-0.96739 -0.23459,-0.34783 -0.43647,-0.71954 -0.60151,-1.11104 -0.16504,-0.39149 -0.29298,-0.80286 -0.37982,-1.22938 -0.0868,-0.42652 -0.13281,-0.86794 -0.13281,-1.32085 0,-0.45291 0.046,-0.89484 0.13281,-1.32137 0.0868,-0.42652 0.21478,-0.83788 0.37982,-1.22938 0.16504,-0.39149 0.36692,-0.76321 0.60151,-1.11104 0.23461,-0.34784 0.50184,-0.67185 0.79737,-0.96738 0.29554,-0.29554 0.61955,-0.56277 0.96739,-0.79737 0.34783,-0.23461 0.71954,-0.43648 1.11104,-0.60152 0.39149,-0.16503 0.80286,-0.29298 1.22938,-0.37982 0.42652,-0.0868 0.86794,-0.13281 1.32085,-0.13281 h 35.58749 v -17.37206 h -73.00484 c -0.52695,0 -1.04114,-0.0535 -1.53738,-0.15451 -0.49624,-0.10104 -0.97491,-0.24982 -1.4304,-0.44184 -0.45549,-0.19201 -0.88774,-0.42726 -1.29243,-0.70021 -0.40469,-0.27296 -0.78167,-0.58375 -1.12551,-0.9276 -0.34385,-0.34383 -0.65464,-0.7203 -0.92759,-1.12499 -0.27296,-0.40469 -0.5082,-0.83746 -0.70022,-1.29295 -0.19202,-0.45548 -0.3408,-0.93364 -0.44183,-1.42988 -0.10103,-0.49624 -0.154,-1.01043 -0.154,-1.53738 0,-0.52694 0.053,-1.04113 0.154,-1.53737 0.10103,-0.49624 0.24981,-0.97492 0.44183,-1.4304 0.19202,-0.45549 0.42726,-0.88774 0.70022,-1.29243 0.27295,-0.40469 0.58374,-0.78167 0.92759,-1.12551 0.34384,-0.34385 0.72082,-0.65464 1.12551,-0.9276 0.40469,-0.27295 0.83694,-0.50819 1.29243,-0.70021 0.45549,-0.19202 0.93416,-0.34081 1.4304,-0.44183 0.49624,-0.10104 1.01043,-0.154 1.53738,-0.154 h 73.00484 v -17.65577 h -35.58749 c -0.45291,0 -0.89433,-0.0455 -1.32085,-0.13229 -0.42652,-0.0868 -0.83789,-0.21478 -1.22938,-0.37982 -0.3915,-0.16504 -0.76321,-0.36743 -1.11104,-0.60203 -0.34784,-0.23461 -0.67185,-0.50183 -0.96739,-0.79737 -0.29553,-0.29554 -0.56276,-0.61904 -0.79737,-0.96687 -0.23459,-0.34783 -0.43647,-0.71955 -0.60151,-1.11104 -0.16504,-0.39149 -0.29298,-0.80286 -0.37982,-1.22938 -0.0868,-0.42652 -0.13281,-0.86846 -0.13281,-1.32137 0,-0.4529 0.046,-0.89485 0.13281,-1.32137 0.0868,-0.42652 0.21478,-0.83737 0.37982,-1.22886 0.16504,-0.3915 0.36692,-0.76373 0.60151,-1.11156 0.23461,-0.34783 0.50184,-0.67133 0.79737,-0.96687 0.29554,-0.29554 0.61955,-0.56276 0.96739,-0.79737 0.34783,-0.2346 0.71954,-0.43699 1.11104,-0.60203 0.39149,-0.16504 0.80286,-0.29299 1.22938,-0.37982 0.42652,-0.0868 0.86794,-0.13229 1.32085,-0.13229 h 34.68625 C 196.16768,105.54268 182.39917,94.045779 165.82088,94.04578 Z"
         style="opacity:0.5;fill:#000000;fill-opacity:1;stroke:none;stroke-width:7.19399977;stroke-linecap:butt;stroke-linejoin:round;stroke-miterlimit:4;stroke-dasharray:none;stroke-dashoffset:0;stroke-opacity:1;paint-order:stroke fill markers;filter:url(#filter1114)" />
      <path
         style="opacity:1;fill:#1b745a;fill-opacity:1;stroke:none;stroke-width:7.19399977;stroke-linecap:butt;stroke-linejoin:round;stroke-miterlimit:4;stroke-dasharray:none;stroke-dashoffset:0;stroke-opacity:1;paint-order:stroke fill markers"
         d="m 41.466792,89.888043 c -19.26468,0 -34.7741037,15.508907 -34.7741037,34.773577 v 120.95283 c 0,19.26468 15.5094237,34.77358 34.7741037,34.77358 H 162.41909 c 15.41806,0 28.40644,-9.94554 32.98817,-23.78821 h -33.80207 c -0.45291,0 -0.89433,-0.0455 -1.32085,-0.13229 -0.42652,-0.0868 -0.83789,-0.21478 -1.22938,-0.37982 -0.3915,-0.16504 -0.76321,-0.36743 -1.11104,-0.60203 -0.34784,-0.23461 -0.67185,-0.50183 -0.96739,-0.79737 -0.29553,-0.29553 -0.56276,-0.61903 -0.79737,-0.96686 -0.2346,-0.34784 -0.43647,-0.71955 -0.60151,-1.11105 -0.16504,-0.39149 -0.29298,-0.80286 -0.37982,-1.22938 -0.0868,-0.42652 -0.13281,-0.86845 -0.13281,-1.32137 0,-0.45291 0.046,-0.89484 0.13281,-1.32136 0.0868,-0.42652 0.21478,-0.83737 0.37982,-1.22887 0.16504,-0.39149 0.36691,-0.76372 0.60151,-1.11156 0.23461,-0.34783 0.50184,-0.67133 0.79737,-0.96687 0.29554,-0.29553 0.61955,-0.56276 0.96739,-0.79736 0.34783,-0.23461 0.71954,-0.43699 1.11104,-0.60203 0.39149,-0.16504 0.80286,-0.29299 1.22938,-0.37983 0.42652,-0.0868 0.86794,-0.13229 1.32085,-0.13229 h 35.58749 V 226.1469 h -73.00484 c -0.52695,0 -1.04114,-0.053 -1.53738,-0.15399 -0.49624,-0.10103 -0.97491,-0.25034 -1.4304,-0.44236 -0.45549,-0.19201 -0.88774,-0.42674 -1.29243,-0.69969 -0.40469,-0.27296 -0.78167,-0.58375 -1.12551,-0.9276 -0.34385,-0.34384 -0.65464,-0.72082 -0.92759,-1.12551 -0.27296,-0.40469 -0.5082,-0.83745 -0.70022,-1.29294 -0.19202,-0.45549 -0.3408,-0.93365 -0.44183,-1.42989 -0.10103,-0.49624 -0.154,-1.01043 -0.154,-1.53737 0,-0.52695 0.053,-1.04114 0.154,-1.53738 0.10103,-0.49624 0.24981,-0.9744 0.44183,-1.42988 0.19202,-0.45549 0.42726,-0.88826 0.70022,-1.29295 0.27295,-0.40469 0.58374,-0.78115 0.92759,-1.12499 0.34384,-0.34385 0.72082,-0.65516 1.12551,-0.92811 0.40469,-0.27296 0.83694,-0.50769 1.29243,-0.6997 0.45549,-0.19202 0.93416,-0.34132 1.4304,-0.44235 0.49624,-0.10103 1.01043,-0.154 1.53738,-0.154 h 73.00484 v -17.65525 h -35.58749 c -0.45291,0 -0.89433,-0.046 -1.32085,-0.13281 -0.42652,-0.0868 -0.83789,-0.21478 -1.22938,-0.37982 -0.3915,-0.16504 -0.76321,-0.36691 -1.11104,-0.60152 -0.34784,-0.2346 -0.67185,-0.50183 -0.96739,-0.79736 -0.29553,-0.29554 -0.56276,-0.61955 -0.79737,-0.96739 -0.23459,-0.34783 -0.43647,-0.71954 -0.60151,-1.11104 -0.16504,-0.39149 -0.29298,-0.80286 -0.37982,-1.22938 -0.0868,-0.42652 -0.13281,-0.86794 -0.13281,-1.32085 0,-0.45291 0.046,-0.89484 0.13281,-1.32137 0.0868,-0.42652 0.21478,-0.83788 0.37982,-1.22938 0.16504,-0.39149 0.36692,-0.76321 0.60151,-1.11104 0.23461,-0.34784 0.50184,-0.67185 0.79737,-0.96738 0.29554,-0.29554 0.61955,-0.56277 0.96739,-0.79737 0.34783,-0.23461 0.71954,-0.43648 1.11104,-0.60152 0.39149,-0.16503 0.80286,-0.29298 1.22938,-0.37982 0.42652,-0.0868 0.86794,-0.13281 1.32085,-0.13281 h 35.58749 v -17.37206 h -73.00484 c -0.52695,0 -1.04114,-0.0535 -1.53738,-0.15451 -0.49624,-0.10104 -0.97491,-0.24982 -1.4304,-0.44184 -0.45549,-0.19201 -0.88774,-0.42726 -1.29243,-0.70021 -0.40469,-0.27296 -0.78167,-0.58375 -1.12551,-0.9276 -0.34385,-0.34383 -0.65464,-0.7203 -0.92759,-1.12499 -0.27296,-0.40469 -0.5082,-0.83746 -0.70022,-1.29295 -0.19202,-0.45548 -0.3408,-0.93364 -0.44183,-1.42988 -0.10103,-0.49624 -0.154,-1.01043 -0.154,-1.53738 0,-0.52694 0.053,-1.04113 0.154,-1.53737 0.10103,-0.49624 0.24981,-0.97492 0.44183,-1.4304 0.19202,-0.45549 0.42726,-0.88774 0.70022,-1.29243 0.27295,-0.40469 0.58374,-0.78167 0.92759,-1.12551 0.34384,-0.34385 0.72082,-0.65464 1.12551,-0.9276 0.40469,-0.27295 0.83694,-0.50819 1.29243,-0.70021 0.45549,-0.19202 0.93416,-0.34081 1.4304,-0.44183 0.49624,-0.10104 1.01043,-0.154 1.53738,-0.154 h 73.00484 v -17.65577 h -35.58749 c -0.45291,0 -0.89433,-0.0455 -1.32085,-0.13229 -0.42652,-0.0868 -0.83789,-0.21478 -1.22938,-0.37982 -0.3915,-0.16504 -0.76321,-0.36743 -1.11104,-0.60203 -0.34784,-0.23461 -0.67185,-0.50183 -0.96739,-0.79737 -0.29553,-0.29554 -0.56276,-0.61904 -0.79737,-0.96687 -0.23459,-0.34783 -0.43647,-0.71955 -0.60151,-1.11104 -0.16504,-0.39149 -0.29298,-0.80286 -0.37982,-1.22938 -0.0868,-0.42652 -0.13281,-0.86846 -0.13281,-1.32137 0,-0.4529 0.046,-0.89485 0.13281,-1.32137 0.0868,-0.42652 0.21478,-0.83737 0.37982,-1.22886 0.16504,-0.3915 0.36692,-0.76373 0.60151,-1.11156 0.23461,-0.34783 0.50184,-0.67133 0.79737,-0.96687 0.29554,-0.29554 0.61955,-0.56276 0.96739,-0.79737 0.34783,-0.2346 0.71954,-0.43699 1.11104,-0.60203 0.39149,-0.16504 0.80286,-0.29299 1.22938,-0.37982 0.42652,-0.0868 0.86794,-0.13229 1.32085,-0.13229 h 34.68625 C 192.76589,101.38494 178.99738,89.888043 162.41909,89.888043 Z"
         id="path978"
         inkscape:connector-curvature="0" />
    </g>
  </g>
</svg>
