<?xml version="1.0" encoding="UTF-8" standalone="no"?>
<!-- Created with Inkscape (http://www.inkscape.org/) -->

<svg
   xmlns:dc="http://purl.org/dc/elements/1.1/"
   xmlns:cc="http://creativecommons.org/ns#"
   xmlns:rdf="http://www.w3.org/1999/02/22-rdf-syntax-ns#"
   xmlns:svg="http://www.w3.org/2000/svg"
   xmlns="http://www.w3.org/2000/svg"
   xmlns:sodipodi="http://sodipodi.sourceforge.net/DTD/sodipodi-0.dtd"
   xmlns:inkscape="http://www.inkscape.org/namespaces/inkscape"
   width="100mm"
   height="100mm"
   viewBox="0 0 100 100"
   version="1.1"
   id="svg8"
   inkscape:version="0.92.4 (5da689c313, 2019-01-14)"
   sodipodi:docname="scale.svg">
  <defs
     id="defs2" />
  <sodipodi:namedview
     id="base"
     pagecolor="#ffffff"
     bordercolor="#666666"
     borderopacity="1.0"
     inkscape:pageopacity="0.0"
     inkscape:pageshadow="2"
     inkscape:zoom="1.4142136"
     inkscape:cx="165.65441"
     inkscape:cy="161.90856"
     inkscape:document-units="mm"
     inkscape:current-layer="layer1"
     showgrid="false"
     showguides="true"
     inkscape:guide-bbox="true"
     inkscape:lockguides="true"
     inkscape:window-width="2560"
     inkscape:window-height="1017"
     inkscape:window-x="-8"
     inkscape:window-y="-8"
     inkscape:window-maximized="1">
    <sodipodi:guide
       position="50.000048,120.39575"
       orientation="1,0"
       id="guide839"
       inkscape:locked="true" />
  </sodipodi:namedview>
  <metadata
     id="metadata5">
    <rdf:RDF>
      <cc:Work
         rdf:about="">
        <dc:format>image/svg+xml</dc:format>
        <dc:type
           rdf:resource="http://purl.org/dc/dcmitype/StillImage" />
        <dc:title></dc:title>
      </cc:Work>
    </rdf:RDF>
  </metadata>
  <g
     inkscape:label="Layer 1"
     inkscape:groupmode="layer"
     id="layer1"
     transform="translate(0,-197)">
    <path
       style="opacity:1;fill:#000000;fill-opacity:1;stroke:#191919;stroke-width:27.18992043;stroke-linecap:butt;stroke-linejoin:round;stroke-miterlimit:4;stroke-dasharray:none;stroke-dashoffset:0;stroke-opacity:0;paint-order:stroke fill markers"
       d="M 123.75391 23.261719 C 68.081598 23.261719 23.261719 68.081598 23.261719 123.75391 L 23.261719 254.19922 C 23.261719 309.87152 68.081598 354.69141 123.75391 354.69141 L 254.19922 354.69141 C 309.87152 354.69141 354.69141 309.87152 354.69141 254.19922 L 354.69141 123.75391 C 354.69141 68.081598 309.87152 23.261719 254.19922 23.261719 L 123.75391 23.261719 z M 188.97656 50.275391 A 126.29603 76.514887 0 0 1 195.98438 50.396484 A 126.29603 76.514887 0 0 1 208.53711 51.207031 A 126.29603 76.514887 0 0 1 220.89258 52.773438 A 126.29603 76.514887 0 0 1 232.92969 55.078125 A 126.29603 76.514887 0 0 1 244.52734 58.101562 A 126.29603 76.514887 0 0 1 255.56836 61.808594 A 126.29603 76.514887 0 0 1 265.94336 66.167969 A 126.29603 76.514887 0 0 1 275.54688 71.130859 A 126.29603 76.514887 0 0 1 284.28711 76.650391 A 126.29603 76.514887 0 0 1 292.07227 82.671875 A 126.29603 76.514887 0 0 1 298.82617 89.132812 L 255.24023 146.74805 L 203.82227 146.74805 L 138.93555 71.701172 L 179.16406 146.74805 L 122.71289 146.74805 L 79.126953 89.132812 A 126.29603 76.514887 0 0 1 82.744141 85.494141 A 126.29603 76.514887 0 0 1 90.080078 79.271484 A 126.29603 76.514887 0 0 1 98.404297 73.521484 A 126.29603 76.514887 0 0 1 107.63672 68.302734 A 126.29603 76.514887 0 0 1 117.67969 63.669922 A 126.29603 76.514887 0 0 1 128.4375 59.667969 A 126.29603 76.514887 0 0 1 139.80273 56.335938 A 126.29603 76.514887 0 0 1 151.6582 53.708984 A 126.29603 76.514887 0 0 1 163.88672 51.810547 A 126.29603 76.514887 0 0 1 176.36914 50.662109 A 126.29603 76.514887 0 0 1 188.97656 50.275391 z "
       transform="matrix(0.26458333,0,0,0.26458333,0,197)"
       id="path855" />
  </g>
</svg>
