<?xml version="1.0" encoding="UTF-8" standalone="no"?>
<!-- Created with Inkscape (http://www.inkscape.org/) -->

<svg
   xmlns:dc="http://purl.org/dc/elements/1.1/"
   xmlns:cc="http://creativecommons.org/ns#"
   xmlns:rdf="http://www.w3.org/1999/02/22-rdf-syntax-ns#"
   xmlns:svg="http://www.w3.org/2000/svg"
   xmlns="http://www.w3.org/2000/svg"
   xmlns:sodipodi="http://sodipodi.sourceforge.net/DTD/sodipodi-0.dtd"
   xmlns:inkscape="http://www.inkscape.org/namespaces/inkscape"
   width="200mm"
   height="200mm"
   viewBox="0 0 200 200"
   version="1.1"
   id="svg1401"
   inkscape:version="0.92.4 (5da689c313, 2019-01-14)"
   sodipodi:docname="userIco.svg">
  <defs
     id="defs1395" />
  <sodipodi:namedview
     id="base"
     pagecolor="#ffffff"
     bordercolor="#666666"
     borderopacity="1.0"
     inkscape:pageopacity="0.0"
     inkscape:pageshadow="2"
     inkscape:zoom="0.7"
     inkscape:cx="427.77577"
     inkscape:cy="398.07277"
     inkscape:document-units="mm"
     inkscape:current-layer="layer1"
     showgrid="false"
     inkscape:window-width="2560"
     inkscape:window-height="1017"
     inkscape:window-x="-8"
     inkscape:window-y="-8"
     inkscape:window-maximized="1" />
  <metadata
     id="metadata1398">
    <rdf:RDF>
      <cc:Work
         rdf:about="">
        <dc:format>image/svg+xml</dc:format>
        <dc:type
           rdf:resource="http://purl.org/dc/dcmitype/StillImage" />
        <dc:title></dc:title>
      </cc:Work>
    </rdf:RDF>
  </metadata>
  <g
     inkscape:label="Layer 1"
     inkscape:groupmode="layer"
     id="layer1"
     transform="translate(0,-97)">
    <path
       style="opacity:1;fill:#c8c8c8;fill-opacity:1;stroke:none;stroke-width:32.35723495;stroke-linecap:butt;stroke-linejoin:round;stroke-miterlimit:4;stroke-dasharray:none;stroke-dashoffset:0;stroke-opacity:0.98039216;paint-order:stroke fill markers"
       d="M 660.88086 624.75195 A 292.14287 269.28572 0 0 0 659.44922 618.87109 A 292.14287 269.28572 0 0 0 650.24219 593.32812 A 292.14287 269.28572 0 0 0 638.3125 568.75781 A 292.14287 269.28572 0 0 0 623.7832 545.41016 A 292.14287 269.28572 0 0 0 606.79688 523.51562 A 292.14287 269.28572 0 0 0 587.52344 503.29297 A 292.14287 269.28572 0 0 0 566.15625 484.94531 A 292.14287 269.28572 0 0 0 542.9082 468.6543 A 292.14287 269.28572 0 0 0 518.01367 454.58594 A 292.14287 269.28572 0 0 0 491.71875 442.87695 A 292.14287 269.28572 0 0 0 464.28711 433.64648 A 292.14287 269.28572 0 0 0 435.99219 426.98828 A 292.14287 269.28572 0 0 0 407.11914 422.96484 A 292.14287 269.28572 0 0 0 377.95312 421.61914 A 292.14287 269.28572 0 0 0 357.28711 422.29492 A 292.14287 269.28572 0 0 0 328.29883 425.53711 A 292.14287 269.28572 0 0 0 299.80469 431.43359 A 292.14287 269.28572 0 0 0 272.0918 439.91992 A 292.14287 269.28572 0 0 0 245.4375 450.91602 A 292.14287 269.28572 0 0 0 220.10742 464.30859 A 292.14287 269.28572 0 0 0 196.35352 479.9668 A 292.14287 269.28572 0 0 0 174.41406 497.73242 A 292.14287 269.28572 0 0 0 154.50977 517.42773 A 292.14287 269.28572 0 0 0 136.83594 538.85547 A 292.14287 269.28572 0 0 0 121.57422 561.80273 A 292.14287 269.28572 0 0 0 108.87109 586.04102 A 292.14287 269.28572 0 0 0 98.857422 611.32617 A 292.14287 269.28572 0 0 0 95.173828 624.62305 A 375.71428 375.71428 0 0 0 377.95312 753.66797 A 375.71428 375.71428 0 0 0 660.88086 624.75195 z "
       id="path1951"
       transform="matrix(0.26458333,0,0,0.26458333,0,97)" />
    <path
       style="opacity:1;fill:#c8c8c8;fill-opacity:1;stroke:none;stroke-width:32.35723495;stroke-linecap:butt;stroke-linejoin:round;stroke-miterlimit:4;stroke-dasharray:none;stroke-dashoffset:0;stroke-opacity:0.98039216;paint-order:stroke fill markers"
       d="M 377.95312 91.619141 A 153.57142 153.57142 0 0 0 367.08984 92.003906 A 153.57142 153.57142 0 0 0 351.85156 93.853516 A 153.57142 153.57142 0 0 0 336.87305 97.216797 A 153.57142 153.57142 0 0 0 322.30469 102.05664 A 153.57142 153.57142 0 0 0 308.29297 108.32812 A 153.57142 153.57142 0 0 0 294.97852 115.96484 A 153.57142 153.57142 0 0 0 282.49219 124.89453 A 153.57142 153.57142 0 0 0 270.95898 135.02539 A 153.57142 153.57142 0 0 0 260.49414 146.25781 A 153.57142 153.57142 0 0 0 251.20508 158.47852 A 153.57142 153.57142 0 0 0 243.18164 171.56445 A 153.57142 153.57142 0 0 0 236.50391 185.38672 A 153.57142 153.57142 0 0 0 231.24023 199.80859 A 153.57142 153.57142 0 0 0 227.44336 214.68164 A 153.57142 153.57142 0 0 0 225.14844 229.85938 A 153.57142 153.57142 0 0 0 224.38086 245.19141 A 153.57142 153.57142 0 0 0 224.76562 256.05469 A 153.57142 153.57142 0 0 0 226.61523 271.29297 A 153.57142 153.57142 0 0 0 229.97852 286.27148 A 153.57142 153.57142 0 0 0 234.81836 300.83984 A 153.57142 153.57142 0 0 0 241.08789 314.85156 A 153.57142 153.57142 0 0 0 248.72656 328.16602 A 153.57142 153.57142 0 0 0 257.65625 340.65234 A 153.57142 153.57142 0 0 0 267.78711 352.18555 A 153.57142 153.57142 0 0 0 279.01953 362.64844 A 153.57142 153.57142 0 0 0 291.24023 371.93945 A 153.57142 153.57142 0 0 0 304.32617 379.96289 A 153.57142 153.57142 0 0 0 318.14844 386.64062 A 153.57142 153.57142 0 0 0 332.56836 391.9043 A 153.57142 153.57142 0 0 0 347.44336 395.70117 A 153.57142 153.57142 0 0 0 362.62109 397.99609 A 153.57142 153.57142 0 0 0 377.95312 398.76172 A 153.57142 153.57142 0 0 0 388.81641 398.37695 A 153.57142 153.57142 0 0 0 404.05469 396.52734 A 153.57142 153.57142 0 0 0 419.0332 393.16602 A 153.57142 153.57142 0 0 0 433.59961 388.32617 A 153.57142 153.57142 0 0 0 447.61133 382.05469 A 153.57142 153.57142 0 0 0 460.92773 374.41797 A 153.57142 153.57142 0 0 0 473.41406 365.48828 A 153.57142 153.57142 0 0 0 484.94727 355.35742 A 153.57142 153.57142 0 0 0 495.41016 344.125 A 153.57142 153.57142 0 0 0 504.70117 331.9043 A 153.57142 153.57142 0 0 0 512.72461 318.81641 A 153.57142 153.57142 0 0 0 519.40234 304.99414 A 153.57142 153.57142 0 0 0 524.66602 290.57422 A 153.57142 153.57142 0 0 0 528.46289 275.70117 A 153.57142 153.57142 0 0 0 530.75781 260.52344 A 153.57142 153.57142 0 0 0 531.52344 245.19141 A 153.57142 153.57142 0 0 0 531.13867 234.32812 A 153.57142 153.57142 0 0 0 529.28906 219.08984 A 153.57142 153.57142 0 0 0 525.92773 204.11133 A 153.57142 153.57142 0 0 0 521.08789 189.54297 A 153.57142 153.57142 0 0 0 514.81641 175.53125 A 153.57142 153.57142 0 0 0 507.17773 162.2168 A 153.57142 153.57142 0 0 0 498.25 149.73047 A 153.57142 153.57142 0 0 0 488.11719 138.19727 A 153.57142 153.57142 0 0 0 476.88672 127.73242 A 153.57142 153.57142 0 0 0 464.66602 118.44336 A 153.57142 153.57142 0 0 0 451.57812 110.41992 A 153.57142 153.57142 0 0 0 437.75586 103.74219 A 153.57142 153.57142 0 0 0 423.33594 98.478516 A 153.57142 153.57142 0 0 0 408.46289 94.681641 A 153.57142 153.57142 0 0 0 393.28516 92.386719 A 153.57142 153.57142 0 0 0 377.95312 91.619141 z "
       id="path1956"
       transform="matrix(0.26458333,0,0,0.26458333,0,97)" />
    <path
       style="opacity:1;fill:#8e8e8e;fill-opacity:1;stroke:none;stroke-width:32.35723495;stroke-linecap:butt;stroke-linejoin:round;stroke-miterlimit:4;stroke-dasharray:none;stroke-dashoffset:0;stroke-opacity:0.98039216;paint-order:stroke fill markers"
       d="M 377.95312 2.2382812 A 375.71428 375.71428 0 0 0 2.2382812 377.95312 A 375.71428 375.71428 0 0 0 95.173828 624.62305 A 292.14287 269.28572 0 0 1 98.857422 611.32617 A 292.14287 269.28572 0 0 1 108.87109 586.04102 A 292.14287 269.28572 0 0 1 121.57422 561.80273 A 292.14287 269.28572 0 0 1 136.83594 538.85547 A 292.14287 269.28572 0 0 1 154.50977 517.42773 A 292.14287 269.28572 0 0 1 174.41406 497.73242 A 292.14287 269.28572 0 0 1 196.35352 479.9668 A 292.14287 269.28572 0 0 1 220.10742 464.30859 A 292.14287 269.28572 0 0 1 245.4375 450.91602 A 292.14287 269.28572 0 0 1 272.0918 439.91992 A 292.14287 269.28572 0 0 1 299.80469 431.43359 A 292.14287 269.28572 0 0 1 328.29883 425.53711 A 292.14287 269.28572 0 0 1 357.28711 422.29492 A 292.14287 269.28572 0 0 1 377.95312 421.61914 A 292.14287 269.28572 0 0 1 407.11914 422.96484 A 292.14287 269.28572 0 0 1 435.99219 426.98828 A 292.14287 269.28572 0 0 1 464.28711 433.64648 A 292.14287 269.28572 0 0 1 491.71875 442.87695 A 292.14287 269.28572 0 0 1 518.01367 454.58594 A 292.14287 269.28572 0 0 1 542.9082 468.6543 A 292.14287 269.28572 0 0 1 566.15625 484.94531 A 292.14287 269.28572 0 0 1 587.52344 503.29297 A 292.14287 269.28572 0 0 1 606.79688 523.51562 A 292.14287 269.28572 0 0 1 623.7832 545.41016 A 292.14287 269.28572 0 0 1 638.3125 568.75781 A 292.14287 269.28572 0 0 1 650.24219 593.32812 A 292.14287 269.28572 0 0 1 659.44922 618.87109 A 292.14287 269.28572 0 0 1 660.88086 624.75195 A 375.71428 375.71428 0 0 0 753.66797 377.95312 A 375.71428 375.71428 0 0 0 377.95312 2.2382812 z M 377.95312 91.619141 A 153.57142 153.57142 0 0 1 393.28516 92.386719 A 153.57142 153.57142 0 0 1 408.46289 94.681641 A 153.57142 153.57142 0 0 1 423.33594 98.478516 A 153.57142 153.57142 0 0 1 437.75586 103.74219 A 153.57142 153.57142 0 0 1 451.57812 110.41992 A 153.57142 153.57142 0 0 1 464.66602 118.44336 A 153.57142 153.57142 0 0 1 476.88672 127.73242 A 153.57142 153.57142 0 0 1 488.11719 138.19727 A 153.57142 153.57142 0 0 1 498.25 149.73047 A 153.57142 153.57142 0 0 1 507.17773 162.2168 A 153.57142 153.57142 0 0 1 514.81641 175.53125 A 153.57142 153.57142 0 0 1 521.08789 189.54297 A 153.57142 153.57142 0 0 1 525.92773 204.11133 A 153.57142 153.57142 0 0 1 529.28906 219.08984 A 153.57142 153.57142 0 0 1 531.13867 234.32812 A 153.57142 153.57142 0 0 1 531.52344 245.19141 A 153.57142 153.57142 0 0 1 530.75781 260.52344 A 153.57142 153.57142 0 0 1 528.46289 275.70117 A 153.57142 153.57142 0 0 1 524.66602 290.57422 A 153.57142 153.57142 0 0 1 519.40234 304.99414 A 153.57142 153.57142 0 0 1 512.72461 318.81641 A 153.57142 153.57142 0 0 1 504.70117 331.9043 A 153.57142 153.57142 0 0 1 495.41016 344.125 A 153.57142 153.57142 0 0 1 484.94727 355.35742 A 153.57142 153.57142 0 0 1 473.41406 365.48828 A 153.57142 153.57142 0 0 1 460.92773 374.41797 A 153.57142 153.57142 0 0 1 447.61133 382.05469 A 153.57142 153.57142 0 0 1 433.59961 388.32617 A 153.57142 153.57142 0 0 1 419.0332 393.16602 A 153.57142 153.57142 0 0 1 404.05469 396.52734 A 153.57142 153.57142 0 0 1 388.81641 398.37695 A 153.57142 153.57142 0 0 1 377.95312 398.76172 A 153.57142 153.57142 0 0 1 362.62109 397.99609 A 153.57142 153.57142 0 0 1 347.44336 395.70117 A 153.57142 153.57142 0 0 1 332.56836 391.9043 A 153.57142 153.57142 0 0 1 318.14844 386.64062 A 153.57142 153.57142 0 0 1 304.32617 379.96289 A 153.57142 153.57142 0 0 1 291.24023 371.93945 A 153.57142 153.57142 0 0 1 279.01953 362.64844 A 153.57142 153.57142 0 0 1 267.78711 352.18555 A 153.57142 153.57142 0 0 1 257.65625 340.65234 A 153.57142 153.57142 0 0 1 248.72656 328.16602 A 153.57142 153.57142 0 0 1 241.08789 314.85156 A 153.57142 153.57142 0 0 1 234.81836 300.83984 A 153.57142 153.57142 0 0 1 229.97852 286.27148 A 153.57142 153.57142 0 0 1 226.61523 271.29297 A 153.57142 153.57142 0 0 1 224.76562 256.05469 A 153.57142 153.57142 0 0 1 224.38086 245.19141 A 153.57142 153.57142 0 0 1 225.14844 229.85938 A 153.57142 153.57142 0 0 1 227.44336 214.68164 A 153.57142 153.57142 0 0 1 231.24023 199.80859 A 153.57142 153.57142 0 0 1 236.50391 185.38672 A 153.57142 153.57142 0 0 1 243.18164 171.56445 A 153.57142 153.57142 0 0 1 251.20508 158.47852 A 153.57142 153.57142 0 0 1 260.49414 146.25781 A 153.57142 153.57142 0 0 1 270.95898 135.02539 A 153.57142 153.57142 0 0 1 282.49219 124.89453 A 153.57142 153.57142 0 0 1 294.97852 115.96484 A 153.57142 153.57142 0 0 1 308.29297 108.32812 A 153.57142 153.57142 0 0 1 322.30469 102.05664 A 153.57142 153.57142 0 0 1 336.87305 97.216797 A 153.57142 153.57142 0 0 1 351.85156 93.853516 A 153.57142 153.57142 0 0 1 367.08984 92.003906 A 153.57142 153.57142 0 0 1 377.95312 91.619141 z "
       id="path1946"
       transform="matrix(0.26458333,0,0,0.26458333,0,97)" />
  </g>
</svg>
